<?xml version="1.0" encoding="utf-8"?>
<!-- Generator: Adobe Illustrator 18.1.1, SVG Export Plug-In . SVG Version: 6.00 Build 0)  -->
<svg version="1.1" id="Guides" xmlns="http://www.w3.org/2000/svg" xmlns:xlink="http://www.w3.org/1999/xlink" x="0px" y="0px"
	 viewBox="0 0 720 540" enable-background="new 0 0 720 540" xml:space="preserve">
<rect x="222.8" y="153.9" fill="none" width="296.2" height="181.4"/>
<text transform="matrix(1 0 0 1 222.7886 231.4383)"><tspan x="0" y="0" fill="#F47721" font-family="'Kadwa-Bold'" font-size="100"> </tspan><tspan x="23.5" y="0" fill="#F47721" font-family="'Kadwa-Bold'" font-size="72">S</tspan><tspan x="67" y="0" fill="#231F20" font-family="'Kadwa-Bold'" font-size="72">hare</tspan><tspan x="0" y="86.4" fill="#231F20" font-family="'Kadwa-Bold'" font-size="72">     cker</tspan><tspan x="243.8" y="86.4" fill="#F47721" font-family="'Kadwa-Bold'" font-size="72">s</tspan></text>
<path d="M349.7,115.9"/>
<g>
	<g>
		<path d="M238.1,281.1c5.2,0,9.4-3.9,9.4-8.8c0-4.9-4.2-8.8-9.4-8.8c-5.2,0-9.4,3.9-9.4,8.8C228.7,277.2,232.9,281.1,238.1,281.1z"
			/>
		<path d="M267.1,292.1c1.6-1.3,1.7-3.6,0.3-5c-1.4-1.5-3.8-1.6-5.4-0.3l-7.4,6.2l-9.3-10.7l-7.7,9.5l-7.9-10.2
			c-4.4,2.8-10.7,10.1-10.7,28.4c0,2,1.7,3.6,3.8,3.6h0c2.1,0,3.9-1.7,3.9-3.6c0-5.3,0.2-9.5,1.5-12.7v11.5c0,1.7,0.6,3.2,1.1,4.5
			v28.9c0,2,1.8,3.6,3.9,3.6c2.1,0,3.9-1.6,3.9-3.6v-24.5c0,0,0.4,0,0.6,0c0.2,0,0.6,0,0.6,0v24.5c0,2,1.8,3.6,3.9,3.6
			c2.1,0,3.9-1.6,3.9-3.6v-28.9c0.6-1.3,1.1-2.9,1.1-4.5v-13.3l4.1,4.8c0.7,0.8,1.6,1.2,2.6,1.3c0.1,0,0.2,0,0.3,0
			c0.9,0,1.8-0.3,2.5-0.9L267.1,292.1z"/>
		<path fill="#F37323" d="M261.2,260.8c-3,0-5.4,2.3-5.4,5.1v23.8l5-4.2c1-0.9,2.3-1.3,3.7-1.3V269h35v68.5h-35v-41l-6.6,5.5
			c-0.6,0.5-1.4,0.9-2.1,1.1v37.4c0,2.8,2.4,5.1,5.4,5.1H303c3,0,5.4-2.3,5.4-5.1v-74.8c0-2.8-2.4-5.1-5.4-5.1
			C303,260.8,261.2,260.8,261.2,260.8z"/>
		<path d="M267.5,334.3h29.1v-18h-29.1V334.3z M270.3,319h23.5v12.4h-23.5V319z"/>
		<rect x="288.2" y="321.1" width="2.8" height="8.2"/>
		<rect x="283.5" y="321.1" width="3" height="8.2"/>
		<path d="M276.1,320.8c-2.6,0-4.7,2-4.7,4.4c0,2.4,2.1,4.4,4.7,4.4c2.6,0,4.7-2,4.7-4.4C280.8,322.7,278.7,320.8,276.1,320.8z
			 M276.1,326.8c-1,0-1.8-0.7-1.8-1.7c0-0.9,0.8-1.7,1.8-1.7c1,0,1.8,0.7,1.8,1.7C277.9,326.1,277.1,326.8,276.1,326.8z"/>
		<path d="M296.5,294.4h-29.1v18h29.1L296.5,294.4L296.5,294.4z M293.7,309.6h-23.5V297h23.5V309.6L293.7,309.6z"/>
		<rect x="288.2" y="299.1" width="2.8" height="8.2"/>
		<rect x="283.5" y="299.1" width="3" height="8.2"/>
		<path d="M276.1,307.6c2.6,0,4.7-2,4.7-4.4c0-2.4-2.1-4.4-4.7-4.4c-2.6,0-4.7,2-4.7,4.4C271.4,305.6,273.5,307.6,276.1,307.6z
			 M276.1,301.5c1,0,1.8,0.7,1.8,1.7c0,0.9-0.8,1.7-1.8,1.7c-1,0-1.8-0.7-1.8-1.7C274.3,302.3,275.1,301.5,276.1,301.5z"/>
		<path d="M296.5,272.4h-29.1v12.6c0.5,0.3,0.9,0.6,1.3,1c1.2,1.3,1.6,2.9,1.3,4.4h26.4C296.5,290.4,296.5,272.4,296.5,272.4z
			 M293.7,287.6h-23.5v-12.4h23.5V287.6L293.7,287.6z"/>
		<rect x="288.2" y="277.2" width="2.8" height="8.2"/>
		<rect x="283.5" y="277.2" width="3" height="8.2"/>
		<path d="M276.1,285.7c2.6,0,4.7-2,4.7-4.4c0-2.4-2.1-4.4-4.7-4.4c-2.6,0-4.7,2-4.7,4.4C271.4,283.7,273.5,285.7,276.1,285.7z
			 M276.1,279.6c1,0,1.8,0.7,1.8,1.7c0,0.9-0.8,1.7-1.8,1.7c-1,0-1.8-0.7-1.8-1.7C274.3,280.3,275.1,279.6,276.1,279.6z"/>
	</g>
</g>
<path fill="#F47721" d="M202.3,253C199,371.8,199,371.8,199,371.8h113.5l-84.1-27.4"/>
<path fill="#F47721" d="M479.6,272c1.5-118.9,1.5-118.9,1.5-118.9l-113.5,1.7l84.5,26.1"/>
</svg>
