<?xml version="1.0" encoding="utf-8"?>
<!-- Generator: Adobe Illustrator 18.1.1, SVG Export Plug-In . SVG Version: 6.00 Build 0)  -->
<svg version="1.1" id="Layer_1" xmlns="http://www.w3.org/2000/svg" xmlns:xlink="http://www.w3.org/1999/xlink" x="0px" y="0px"
	 viewBox="0 0 612 516.6" enable-background="new 0 0 612 516.6" xml:space="preserve">
<g>
	<path fill="#2CBFCA" stroke="#EA8D1C" stroke-width="5" stroke-miterlimit="10" d="M519.8,170.2c0.1-2.4,0.2-4.7,0.2-7.1
		C520,76,450.9,5.4,365.8,5.4c-61.7,0-114.9,37-139.5,90.5c-13.7-10-30.6-15.9-49-15.9c-45.6,0-82.6,36.6-82.6,81.6
		c0,6.7,0.8,13.2,2.4,19.4C45.1,192.4,6,240.6,6,298.2c0,66.1,51.3,116.5,114.6,116.5h375.8c60.6,0,109.6-52.9,109.6-122.1
		C606,232.6,569.1,182.5,519.8,170.2z"/>
</g>
<path fill="#FFFFFF" stroke="#F47D21" stroke-width="5" stroke-miterlimit="10" d="M426.7,315.8c-0.6-18.4-4.8-44.1-33-44.1h-3.6
	c-28.4,0-32.4,26-33,44.5c-6.1,3.1-10.3,9.5-10.3,17V377c0,10.5,8.3,19,18.6,19h53.8c10.3,0,18.6-8.5,18.6-19v-43.9
	C437.8,325.4,433.2,318.7,426.7,315.8z M399.6,354.3v17.1H385v-17.1c-2.1-2-3.5-4.9-3.5-8.1c0-6.1,4.8-11,10.8-11
	c6,0,10.8,4.9,10.8,11C403.1,349.4,401.8,352.3,399.6,354.3z M373.5,313.6c0-9.8,0-29.3,17.5-29.3h1.9c17.5,0,17.5,19.4,17.5,29.3
	H373.5z"/>
<path fill="#FFFFFF" stroke="#F47D21" stroke-width="5" stroke-miterlimit="10" d="M335.1,340.5h-90.7V162.2h144v97.6h24.2v-97.6
	c0-12.4-10.8-22.5-24.2-22.5h-144c-13.4,0-24.2,10.1-24.2,22.5v178.3c0,12.4,10.8,22.5,24.2,22.5h90.7V340.5z"/>
<path fill="#FFFFFF" stroke="#F47D21" stroke-width="5" stroke-miterlimit="10" d="M274.6,215.6h85.1c7.1,0,12.9-5,12.9-11.3
	c0-6.2-5.8-11.2-12.9-11.2h-85.1c-7.1,0-12.9,5-12.9,11.2C261.7,210.5,267.5,215.6,274.6,215.6z"/>
<path fill="#FFFFFF" stroke="#F47D21" stroke-width="5" stroke-miterlimit="10" d="M274.6,246.5h85.1c7.1,0,12.9-5,12.9-11.3
	c0-6.2-5.8-11.2-12.9-11.2h-85.1c-7.1,0-12.9,5-12.9,11.2C261.7,241.5,267.5,246.5,274.6,246.5z"/>
<path fill="#FFFFFF" stroke="#F47D21" stroke-width="5" stroke-miterlimit="10" d="M272.7,277.4h73c6.1,0,11-5,11-11.2
	c0-6.2-4.9-11.3-11-11.3h-73c-6.1,0-11,5-11,11.3C261.7,272.4,266.7,277.4,272.7,277.4z"/>
<rect x="70.8" y="440.1" fill="none" width="552" height="153"/>
<text transform="matrix(1 0 0 1 70.8208 495.8484)" stroke="#CF6428" stroke-miterlimit="10" font-family="'Kadwa-Bold'" font-size="72">Share Lockers</text>
</svg>
